<svg width="281" height="80" viewBox="0 0 281 80" fill="none" xmlns="http://www.w3.org/2000/svg">
<g clip-path="url(#clip0_1195_17457)">
<path d="M15.3486 73.5818L14.9694 74.6909H15.9806L15.8542 75.1273H14.8069L13.7776 78C14.2709 77.8572 14.719 77.5878 15.0777 77.2182H15.2763C14.8922 78.0291 14.1219 78.585 13.2359 78.6909C13.1143 78.6926 13.0009 78.6294 12.9378 78.5248C12.8747 78.4201 12.8713 78.2896 12.9289 78.1818L14.0304 75.0727H13.3262L13.3442 74.8182L14.211 74.6909L14.9513 73.5818H15.3486ZM32.0153 73.5818L31.6181 74.6909H32.6293L32.5029 75.1273H31.3653L30.336 78C30.8293 77.8572 31.2774 77.5878 31.6361 77.2182H31.8347C31.4506 78.0291 30.6803 78.585 29.7943 78.6909C29.6727 78.6926 29.5593 78.6294 29.4962 78.5248C29.4331 78.4201 29.4297 78.2896 29.4873 78.1818L30.6971 75.0727H29.7582L29.9929 74.8182L30.8597 74.6909L31.6 73.5818H32.0153ZM25.8037 74.5454C25.9568 74.5278 26.1096 74.5815 26.2186 74.6912C26.3276 74.801 26.3809 74.9549 26.3634 75.1091C26.351 75.369 26.2832 75.6232 26.1648 75.8545L25.0814 78.0182C25.4275 77.9086 25.7266 77.6843 25.9301 77.3818H26.1287C25.8828 78.0971 25.2506 78.6064 24.5035 78.6909C24.3828 78.6889 24.271 78.6262 24.2057 78.5239C24.1404 78.4216 24.1302 78.2932 24.1785 78.1818L25.2439 75.7273C25.4425 75.4545 25.4786 75.2727 25.2439 75.2727C24.6734 75.4335 24.1639 75.7628 23.7813 76.2182L22.9687 78.3636C22.9324 78.5403 22.7672 78.6591 22.5895 78.6363C22.2464 78.6363 22.0839 78.4182 22.2464 78.0727L23.2215 76.2182C23.5104 75.6 23.3298 75.0182 22.9326 75.0182L23.0112 74.9004C23.1581 74.679 23.2576 74.5454 23.5826 74.5454C23.9618 74.5454 24.0882 74.8909 24.0882 75.3091V75.8727C24.7202 75.1273 25.2619 74.5454 25.8037 74.5454ZM8.64937 74.5454C9.02857 74.5454 9.02857 74.9091 9.02857 75.4182L8.16183 75.4545C7.91267 75.708 7.67757 75.975 7.4576 76.2545L6.64503 78.4C6.55474 78.6727 6.62697 78.6727 6.26583 78.6727C5.90469 78.6727 5.76023 78.4545 5.90469 78.1091L6.73531 76.2909C7.02423 75.6727 6.87977 75.3818 6.73531 75.3818C6.59086 75.3818 6.39223 75.5636 6.1936 75.8545H5.99497C6.28389 75.2 6.75337 74.5454 7.11452 74.5454C7.47566 74.5454 7.62011 74.8909 7.62011 75.3091V75.8727C8.07154 74.8727 8.27017 74.5454 8.64937 74.5454ZM12.64 74.3091L11.5746 76.8909C11.2857 77.5091 11.4302 77.8 11.5746 77.8C11.7191 77.8 11.9177 77.6182 12.1163 77.3272H12.3691C12.0622 77.9818 11.5927 78.6363 11.2315 78.6363C10.8704 78.6363 10.7079 78.2545 10.7079 77.5636V77.3091C10.2023 78 9.75086 78.6363 9.29943 78.6363C9.13054 78.6527 8.96303 78.5936 8.84133 78.4745C8.71963 78.3555 8.65604 78.1886 8.66743 78.0182C8.79721 76.2174 10.2196 74.7852 12.008 74.6545L12.3872 74.3091H12.64ZM17.9307 74.4909C18.5989 74.4909 19.0142 74.9091 18.5989 75.8909L16.4681 76.5818C16.4494 76.7753 16.4494 76.9701 16.4681 77.1636C16.4681 77.6545 16.6667 77.8545 17.0279 77.8545C17.452 77.7798 17.8255 77.5291 18.0571 77.1636H18.2558C17.7502 78.0909 17.064 78.6363 16.5765 78.6363C16.0889 78.6363 15.7639 78.2909 15.7639 77.6182C15.7639 76.1636 16.9195 74.4909 17.9307 74.4909ZM34.5433 74.4909C35.1211 74.4909 35.6267 74.9091 35.2114 75.8909L33.0807 76.5818C33.062 76.7753 33.062 76.9701 33.0807 77.1636C33.0807 77.6545 33.2793 77.8545 33.6405 77.8545C34.0646 77.7798 34.4381 77.5291 34.6697 77.1636H34.8683C34.3627 78.0909 33.6766 78.6363 33.189 78.6363C32.7015 78.6363 32.3765 78.2909 32.3765 77.6182C32.3765 76.1636 33.5321 74.4909 34.5433 74.4909ZM28.5483 74.4909C28.6478 74.4995 28.7368 74.5563 28.7871 74.6431C28.8374 74.7299 28.8426 74.8359 28.8011 74.9273L27.6997 77.9454C28.0458 77.8359 28.3449 77.6116 28.5483 77.3091H28.747C28.5198 78.008 27.9174 78.5159 27.1941 78.6182C27.0904 78.6191 26.9941 78.564 26.9419 78.4739C26.8897 78.3837 26.8894 78.2722 26.9413 78.1818L27.9705 75.1636C27.6187 75.2617 27.3159 75.4886 27.1218 75.8H26.9232C27.1691 75.0847 27.8013 74.5754 28.5483 74.4909ZM21.9214 74.4909C22.2464 74.4909 22.3909 74.9091 22.2464 75.4182L21.4519 75.4C21.2027 75.6534 20.9676 75.9205 20.7477 76.2L19.9351 78.3454C19.8907 78.5248 19.7198 78.6421 19.5378 78.6182C19.1947 78.6182 19.0503 78.4 19.1947 78.0545L20.0254 76.2363C20.3143 75.6182 20.1698 75.3273 20.0254 75.3273C19.8809 75.3273 19.6823 75.5091 19.4656 75.8H19.267C19.5739 75.1454 20.0434 74.4909 20.4046 74.4909C20.7657 74.4909 20.8921 74.8363 20.8921 75.2545V75.8182C21.3616 74.8182 21.5963 74.4909 21.9214 74.4909ZM6.41029 72.9091L6.17554 74.1636H5.88663C5.88663 73.4363 5.8144 73.2545 5.09211 73.2545H4.60457C3.90034 73.2545 3.792 73.3636 3.61143 73.8727L2.92526 75.5091H4.0448C4.60457 75.5091 4.8032 75.1818 5.056 74.7454H5.27269L4.60457 76.5636H4.31566C4.38789 76.0182 4.36983 75.8182 3.86423 75.8182H2.74469L2.32937 76.9454C1.91406 78.0545 2.04046 78.0545 3.06971 78.2545V78.4909H0.108343V78.2545C1.04731 78.0909 1.20983 78 1.58903 76.9454L2.58217 74.4363C2.97943 73.3818 2.88914 73.3091 2.07657 73.1454V72.9091H6.41029ZM11.4663 75.2363H11.1051C10.5093 75.2363 9.46194 76.5091 9.46194 77.4545H9.44389C9.44389 77.7272 9.42583 77.8545 9.67863 77.8545C9.93143 77.8545 10.4731 77.3273 10.8343 76.9091L11.4663 75.2363ZM34.128 75.0545C33.821 75.0545 33.4418 75.4909 33.2071 76.1091L34.5253 75.8C34.6697 75.2545 34.4169 75.0545 34.128 75.0545ZM17.5154 75.0545C17.2085 75.0545 16.8293 75.4909 16.5945 76.1091L17.9127 75.8C18.0571 75.2545 17.8043 75.0545 17.5154 75.0545ZM35.8615 72.5454V72.7091L34.3627 74.0909H34.2725L35.2114 72.5454H35.8615ZM29.0178 72.3818C29.2971 72.3818 29.5234 72.6097 29.5234 72.8909C29.5286 73.0274 29.4769 73.1599 29.381 73.2565C29.285 73.3532 29.1534 73.4051 29.0178 73.4C28.7386 73.4 28.5122 73.1721 28.5122 72.8909C28.5216 72.6137 28.7426 72.3912 29.0178 72.3818ZM8.36046 64.9272C8.55047 64.9279 8.73708 64.978 8.90217 65.0727H10.3648L10.2384 65.5091H9.38972C9.41845 65.647 9.41845 65.7894 9.38972 65.9273C9.33831 66.8351 8.62874 67.5651 7.72846 67.6363C7.52799 67.7252 7.38545 67.9097 7.34926 68.1273C7.34926 68.3273 7.51177 68.3454 8.23406 68.5636C8.95634 68.7818 9.38972 68.9636 9.38972 69.4545H9.31749C9.31749 70.0909 8.14377 70.8363 6.73531 70.8363C5.90469 70.8363 5.20046 70.6363 5.20046 70.0909C5.20046 69.5454 5.65189 69.1636 6.80754 68.8363C6.67167 68.7411 6.59073 68.5849 6.59086 68.4182C6.59086 68.1091 6.87977 67.8545 7.36731 67.6363C6.88745 67.5396 6.54523 67.1108 6.55474 66.6182C6.62124 65.664 7.41054 64.9249 8.36046 64.9272ZM7.04229 68.9454C6.48252 69.1636 6.08526 69.4182 6.08526 69.8182C6.08526 70.2 6.30194 70.3636 7.16869 70.3636C8.03543 70.3636 8.68549 69.8909 8.68549 69.7091C8.68549 69.5273 8.23406 69.3818 7.87292 69.2545C7.51177 69.1273 7.22286 68.9454 7.04229 68.9454ZM24.2327 64.9818C24.8105 64.9818 25.3161 65.4 24.9008 66.3818L22.7701 67.0727C22.7513 67.2662 22.7513 67.461 22.7701 67.6545C22.7701 68.1454 22.9687 68.3636 23.3298 68.3636C23.7554 68.2804 24.1279 68.0238 24.3591 67.6545H24.5577C24.0521 68.5818 23.3659 69.1454 22.8784 69.1454C22.3909 69.1454 22.0658 68.7818 22.0658 68.1273C22.0658 66.6545 23.2215 64.9818 24.2327 64.9818ZM21.6144 63.9273L21.2171 65.0182H22.2464L22.1019 65.4545H21.0546L20.0254 68.4363C20.5187 68.2936 20.9667 68.0242 21.3255 67.6545H21.5241C21.142 68.4702 20.3723 69.0326 19.4837 69.1454C19.3611 69.1402 19.2495 69.0726 19.1875 68.966C19.1254 68.8594 19.1214 68.7284 19.1767 68.6182L20.3143 65.5636H19.592V65.1454L20.4768 65.0182L21.1991 63.9273H21.6144ZM18.3822 64.9818C18.4816 64.9905 18.5706 65.0472 18.6209 65.134C18.6712 65.2208 18.6764 65.3268 18.635 65.4182L17.389 68.4727C17.7365 68.3559 18.0352 68.1255 18.2377 67.8182H18.4363C18.2112 68.5217 17.6095 69.036 16.8834 69.1454C16.7788 69.1393 16.6846 69.0799 16.6334 68.9879C16.5822 68.8958 16.5812 68.7839 16.6306 68.6909L17.8043 65.6545C17.4582 65.7641 17.1591 65.9884 16.9557 66.2909H16.757C17.0029 65.5756 17.6352 65.0663 18.3822 64.9818ZM16.9195 62.7818L14.7707 68.3818V68.4727C15.1392 68.3591 15.4619 68.1297 15.6917 67.8182H16.0167C15.8199 68.5404 15.2035 69.0673 14.4638 69.1454C14.3412 69.1402 14.2296 69.0726 14.1676 68.966C14.1055 68.8594 14.1015 68.7284 14.1568 68.6182L15.8361 64.2364C15.9986 63.6545 16.0709 63.4909 15.8361 63.3091L15.5653 63.1091V62.9454L16.9195 62.7818ZM13.9221 64.7454L12.7845 67.3454C12.5136 67.9636 12.6219 68.2545 12.7845 68.2545C12.947 68.2545 13.1456 68.0727 13.3442 67.7818H13.6331C13.3442 68.4363 12.8747 69.1091 12.5136 69.1091C12.1525 69.1091 11.9899 68.7273 11.9899 68.0182V67.7636C11.5024 68.4545 11.051 69.1091 10.5995 69.1091C10.4273 69.1263 10.2564 69.0648 10.134 68.9415C10.0115 68.8182 9.95047 68.6462 9.96754 68.4727C10.0841 66.6901 11.4693 65.2567 13.2359 65.0909L13.597 64.7454H13.9221ZM6.41029 63.3454L6.17554 64.6H5.88663C5.88663 63.8909 5.8144 63.6909 5.09211 63.6909H4.60457C3.90034 63.6909 3.792 63.8 3.61143 64.3091L2.96137 65.8727H4.08091C4.64069 65.8727 4.83931 65.5454 5.09211 65.1091H5.38103L4.69486 66.9273H4.40594C4.47817 66.3818 4.47817 66.1818 3.97257 66.1818H2.83497L2.4016 67.4C1.96823 68.5818 1.85989 68.5818 3.12389 68.5818C3.94192 68.5579 4.71614 68.2041 5.27269 67.6H5.59771L4.74903 68.9273H0.0902857V68.6909C1.04731 68.5273 1.20983 68.4363 1.58903 67.4L2.58217 64.8909C2.97943 63.8363 2.88914 63.7454 2.07657 63.5818V63.3454H6.41029ZM12.6942 65.6727H12.333C11.7371 65.6727 10.6898 66.9454 10.6898 67.8909V67.8854V67.8909L10.6896 67.9626C10.6902 68.161 10.7079 68.2545 10.9246 68.2545C11.1774 68.2545 11.7191 67.7454 12.0802 67.3091L12.6942 65.6727ZM8.27017 65.1454C7.69234 65.1454 7.3312 66.1454 7.3312 66.8182C7.3312 67.0727 7.42149 67.2727 7.67429 67.2727C8.25212 67.2727 8.63132 66.2727 8.63132 65.6C8.63132 65.3454 8.52297 65.1454 8.27017 65.1454ZM23.8896 65.4545C23.5826 65.4545 23.2034 65.9091 22.9687 66.5091L24.2869 66.2C24.4313 65.6727 24.1785 65.4545 23.8896 65.4545ZM25.6953 63.0363V63.2L24.1966 64.5818H23.9799L24.9008 63.0363H25.6953ZM18.8607 62.952C19.1126 62.952 19.3287 63.1326 19.3753 63.3818C19.3754 63.52 19.3197 63.6524 19.2209 63.7484C19.1221 63.8444 18.9889 63.8958 18.8517 63.8909C18.5724 63.8909 18.3461 63.663 18.3461 63.3818C18.3926 63.1326 18.6088 62.952 18.8607 62.952ZM6.08526 61.8182V61.9454L4.58651 62.9636L4.35177 63L5.1824 61.8182H6.08526ZM11.0149 53.2545L9.71474 56.6182C10.2384 55.9273 10.8704 55.3636 11.2857 55.3636C11.701 55.3636 11.9358 55.6 11.9358 56.2182V56.2363C11.7447 57.804 10.6436 59.1059 9.13692 59.5454C8.68549 59.5454 8.19794 59.2 8.19794 58.8363C8.24446 58.6104 8.31718 58.3907 8.41463 58.1818L9.93143 54.6909C10.0939 54.1454 10.1662 53.9454 9.93143 53.7636L9.66057 53.5636V53.4L11.0149 53.2545ZM23.6549 55.3636C24.323 55.3636 24.7383 55.8 24.323 56.7636L22.1922 57.4727C22.1736 57.6662 22.1736 57.861 22.1922 58.0545C22.1922 58.5273 22.3728 58.7454 22.7339 58.7454C23.1599 58.6633 23.5364 58.415 23.7813 58.0545H23.9799C23.4923 58.9636 22.8242 59.5273 22.3186 59.5273C21.813 59.5273 21.5061 59.1636 21.5061 58.5091C21.5061 57.0363 22.6437 55.3636 23.6549 55.3636ZM21.1449 54.4182L20.7657 55.5091H21.795L21.6686 55.9454H20.6213L19.592 58.8182C20.0916 58.6902 20.5433 58.4185 20.8921 58.0363H21.0907C20.7086 58.852 19.9389 59.4144 19.0503 59.5273C18.7433 59.5273 18.7433 59.2727 18.7433 59L19.8629 55.9454H19.1947L19.285 55.6363L20.0073 55.5091L20.7477 54.4182H21.1449ZM14.3193 55.3636C15.0055 55.3636 15.4208 55.8 15.0055 56.7636L12.8567 57.4727C12.8381 57.6662 12.8381 57.861 12.8567 58.0545C12.8567 58.5273 13.0373 58.7454 13.3984 58.7454C13.8267 58.6692 14.2052 58.4194 14.4457 58.0545H14.6443C14.1568 58.9636 13.4706 59.5273 12.9831 59.5273C12.4955 59.5273 12.1705 59.1636 12.1705 58.5091C12.1705 57.0363 13.3262 55.3636 14.3193 55.3636ZM7.49372 55.3636C7.59313 55.3723 7.68217 55.429 7.73245 55.5158C7.78273 55.6026 7.78797 55.7086 7.74652 55.8L6.50057 58.8363C6.85149 58.7262 7.15221 58.4942 7.34926 58.1818H7.54789C7.32843 58.8924 6.72558 59.4148 5.99497 59.5273C5.89038 59.5211 5.79611 59.4617 5.74492 59.3697C5.69373 59.2777 5.69269 59.1657 5.74217 59.0727L6.91589 56.0363C6.55974 56.1456 6.25299 56.3772 6.04914 56.6909H5.85051C6.10095 55.9684 6.7389 55.4531 7.49372 55.3636ZM18.328 55.3636C18.653 55.3636 18.7975 55.8 18.653 56.2909L17.8405 56.2727C17.5877 56.5454 17.371 56.8 17.1362 57.0909L16.3237 59.2364C16.2874 59.413 16.1222 59.5318 15.9445 59.5091C15.6014 59.5091 15.4389 59.2909 15.6014 58.9454L16.432 57.1273C16.7209 56.4909 16.5945 56.2182 16.432 56.2182C16.2695 56.2182 16.0889 56.3818 15.8722 56.6909H15.6736C15.9806 56.0363 16.4139 55.3636 16.7931 55.3636C17.1723 55.3636 17.2987 55.7273 17.2987 56.1273V56.6891L17.4212 56.4387C17.7726 55.7281 17.9867 55.4258 18.2414 55.3724L18.328 55.3636ZM4.85737 53.7818L4.8032 54.0182C3.84617 54.2 3.68366 54.2727 3.30446 55.3273L2.4016 57.8363C2.00434 58.9091 2.09463 59.0364 2.81691 59.0364C3.66515 58.9246 4.42313 58.4467 4.89349 57.7273H5.21851L4.2976 59.3636H0.162514V59.1273C1.11954 58.9636 1.28206 58.8909 1.66126 57.8363L2.56411 55.3273C2.96137 54.2727 2.88914 54.2 2.05851 54.0182V53.7818H4.85737ZM10.8162 56.1454C10.4912 56.1454 9.93143 56.6182 9.55223 57.0545L9.20914 57.9636C9.12931 58.1526 9.06293 58.347 9.01052 58.5454C9.01052 58.7091 9.29943 58.9091 9.51612 58.9091L9.68468 58.8894C10.4092 58.7214 11.0441 57.5174 11.1311 56.7213L11.1413 56.5454C11.1413 56.2727 11.1413 56.1454 10.8162 56.1454ZM23.4743 55.9273C23.1493 55.9273 22.7701 56.3818 22.5353 57L23.8715 56.6909C23.9979 56.1454 23.7451 55.9273 23.4743 55.9273ZM13.9221 55.9273C13.6151 55.9273 13.2178 56.3818 13.0011 57L14.3193 56.6909C14.4457 56.1454 14.211 55.9273 13.9221 55.9273ZM25.1175 53.4182V53.5818L23.6187 54.9818H23.384L24.3049 53.4182H25.1175ZM7.75688 53.2987C7.9451 53.2141 8.16547 53.2531 8.31383 53.3972C8.4622 53.5412 8.50887 53.7615 8.43179 53.954C8.35471 54.1465 8.16931 54.2726 7.9632 54.2727C7.8308 54.2777 7.7021 54.2281 7.60672 54.1355C7.51135 54.0429 7.45751 53.9152 7.4576 53.7818C7.45024 53.5744 7.56865 53.3833 7.75688 53.2987ZM46.5874 35.5454C48.3146 35.5036 49.958 36.2938 51.0114 37.6727L49.3321 38.9636C48.7122 38.0541 47.6829 37.5155 46.5874 37.5273C44.7453 37.6603 43.3183 39.204 43.3183 41.0636C43.3183 42.9233 44.7453 44.4669 46.5874 44.6C47.6829 44.6118 48.7122 44.0731 49.3321 43.1636V43.1273L51.0114 44.4182C50.1293 45.5652 48.8297 46.311 47.4 46.4909L46.0999 48.6363H44.2039L45.5401 46.4545C42.5483 46.1633 40.3574 43.4852 40.6466 40.4727C40.9358 37.4602 43.5956 35.2542 46.5874 35.5454ZM71.723 35.5273C73.138 35.5519 74.4658 36.2204 75.3344 37.3454L73.7634 38.7273C73.302 37.993 72.5281 37.5161 71.6688 37.4363C71.3615 37.4057 71.0556 37.5064 70.8256 37.7138C70.5955 37.9213 70.4625 38.2164 70.459 38.5273C70.459 40.3454 75.2441 39.9636 75.2441 43.4909C75.2224 44.3779 74.838 45.2166 74.1816 45.8087C73.5252 46.4007 72.6552 46.6936 71.7772 46.6182C70.2629 46.676 68.8127 46 67.8768 44.8L69.4839 43.3818C70.0217 44.1501 70.8809 44.6262 71.8133 44.6727C72.6619 44.6727 73.1675 44.2182 73.1675 43.4545C73.1675 41.6363 68.3643 42.0182 68.3643 38.5454C68.3963 37.6909 68.7723 36.8863 69.406 36.3169C70.0396 35.7475 70.8762 35.4624 71.723 35.5273ZM11.2496 35.8C13.5429 35.8 14.9694 36.9818 14.9694 38.9091C15.0184 40.07 14.3501 41.1408 13.2901 41.6L16.5945 46.2363H14.0485L11.2496 42.0363H10.1662V46.2545H8.03543V35.8H11.2496ZM6.15749 35.8182V37.6182H2.16686V40.0363H5.5616V41.8363H2.16686V46.2545H0.0361143V35.8182H6.15749ZM83.6768 35.8182V37.6182H79.6862V40.0363H83.0809V41.8363H79.6862V44.4363H83.6768V46.2545H77.5554V35.8182H83.6768ZM32.1417 35.8182L36.8366 43.2727V35.8182H38.9673V46.2545H36.2407L31.5278 38.7454V46.2545H29.4151V35.8182H32.1417ZM58.2162 35.8182L62.1888 46.2545H59.9317L58.9205 43.5273H54.7312L53.72 46.2545H51.4629L55.4354 35.8182H58.2162ZM23.8174 35.8182L27.7899 46.2545H25.5147L24.5216 43.5273H20.3143L19.3031 46.2545H17.0459L21.0185 35.8182H23.8174ZM65.9447 35.8182V46.2545H63.8139V35.8182H65.9447ZM22.4089 37.9091L20.9824 41.8182H23.8535L22.4089 37.9091ZM56.8258 37.9091L55.3813 41.8182H58.2704L56.8258 37.9091ZM11.3579 37.6182H10.1662V40.2182H11.3579C11.7313 40.2742 12.1098 40.1567 12.3871 39.8987C12.6643 39.6407 12.8105 39.2701 12.7845 38.8909C12.7845 38.1091 12.2608 37.6182 11.3579 37.6182ZM70.3674 23.5109C71.6133 25.8457 71.0121 28.7443 68.9422 30.3818L69.5742 30.9818C70.1576 31.5796 70.9455 31.9307 71.7772 31.9636V31.9273C72.0343 31.9358 72.291 31.8988 72.5355 31.8182V33.6363C72.1813 33.7842 71.7992 33.8525 71.416 33.8363C70.1927 33.7973 69.0251 33.3128 68.1296 32.4727L66.9017 31.3636C66.4289 31.481 65.9441 31.5421 65.4572 31.5454C62.8257 31.4777 60.6235 29.5151 60.237 26.8934C59.8506 24.2716 61.3919 21.7496 63.8904 20.9154C66.389 20.0811 69.1215 21.1761 70.3674 23.5109ZM75.0094 20.7818V27.2727C74.9351 28.083 75.3224 28.8659 76.0096 29.2942C76.6968 29.7225 77.5654 29.7225 78.2526 29.2942C78.9398 28.8659 79.3271 28.083 79.2528 27.2727V20.7818H81.3836V27.1273C81.4869 28.7236 80.6998 30.2453 79.3414 31.075C77.9831 31.9048 76.2791 31.9048 74.9208 31.075C73.5624 30.2453 72.7753 28.7236 72.8786 27.1273V20.7818H75.0094ZM29.4151 20.7818V27.2727C29.3408 28.083 29.7281 28.8659 30.4153 29.2942C31.1025 29.7225 31.9711 29.7225 32.6583 29.2942C33.3455 28.8659 33.7328 28.083 33.6585 27.2727V20.7818H35.7893V27.1273C35.905 28.3051 35.4968 29.4741 34.6743 30.3198C33.8519 31.1654 32.6997 31.6009 31.5278 31.5091C30.3571 31.6018 29.2061 31.1659 28.3863 30.3194C27.5665 29.4729 27.1628 28.3033 27.2843 27.1273V20.7818H29.4151ZM16.0347 20.7818V22.6H12.0441V25.0182H15.4389V26.8363H12.0441V29.4363H16.0347V31.2545H9.91337V20.7818H16.0347ZM57.837 20.7818V31.2182H55.7063V20.7818H57.837ZM3.25029 20.7818C5.5616 20.7818 6.98811 21.9454 6.98811 23.8909C7.03192 25.0504 6.36538 26.1185 5.3088 26.5818L8.5952 31.2H6.04914L3.26834 26.9818H2.16686V31.2H0V20.7818H3.25029ZM90.1413 20.7818V22.5818H86.1506V24.9818H89.5454V26.8H86.1506V29.4H90.1413V31.2H84.0199V20.7818H90.1413ZM49.8377 20.7818V29.2909H53.8283V31.2H47.707V20.7818H49.8377ZM41.405 20.7636C43.5899 20.7636 44.9262 21.8363 44.9262 23.5818C44.9261 24.4143 44.5039 25.1891 43.8066 25.6363C44.8682 26.0026 45.5895 26.9976 45.6123 28.1273C45.6123 29.9454 44.1136 31.1818 41.712 31.1818H38.4256V20.7636H41.405ZM21.9755 20.7636C24.2869 20.7636 25.6953 21.9273 25.6953 23.8727C25.6953 25.8182 24.2869 26.9636 21.9755 26.9636H20.6393V31.1818H18.5086V20.7636H21.9755ZM63.6798 22.8149C62.594 23.482 61.9697 24.7044 62.0624 25.9818C61.9697 27.2592 62.594 28.4816 63.6798 29.1487C64.7656 29.8159 66.1307 29.8159 67.2165 29.1487C68.3023 28.4816 68.9265 27.2592 68.8338 25.9818C68.9265 24.7044 68.3023 23.482 67.2165 22.8149C66.1307 22.1477 64.7656 22.1477 63.6798 22.8149ZM41.7481 26.6727H40.5563V29.4H41.7481C42.7413 29.4 43.3371 28.8727 43.3371 28.0182C43.3371 27.1636 42.7413 26.6727 41.7481 26.6727ZM22.0658 22.5818H20.6393V25.1818H22.0658C22.4407 25.2368 22.8204 25.1197 23.1002 24.8625C23.3801 24.6054 23.5306 24.2355 23.5104 23.8545C23.5104 23.0727 22.9687 22.5818 22.0658 22.5818ZM3.35863 22.5818H2.16686V25.1818H3.35863C3.73202 25.2378 4.11048 25.1203 4.38774 24.8623C4.665 24.6044 4.81115 24.2337 4.78514 23.8545C4.78514 23.0727 4.26149 22.5818 3.35863 22.5818ZM41.5314 22.5818H40.5563V24.8545H41.5314C42.344 24.8545 42.7954 24.4545 42.7954 23.7091C42.7954 22.9636 42.344 22.5818 41.5314 22.5818ZM15.8722 17.8727L13.9221 19.8727H11.9899L13.6873 17.8727H15.8722Z" fill="#1D1D1B"/>
<path d="M11.2496 9.92727C11.2496 9.92727 11.2496 9.92727 11.3579 9.92727H11.1413L10.7079 10.0364C10.5273 10.0364 10.3648 10.2182 10.1481 10.2727C9.93143 10.3273 9.62446 10.6 9.31749 10.7091C9.01052 10.8182 9.31749 10.7091 9.31749 10.7091C9.31749 10.7091 9.46194 10.7091 9.51612 10.5273C9.57029 10.3455 9.51612 10.5273 9.51612 10.5273C9.75168 10.2841 10.0052 10.0592 10.2745 9.85455C10.3648 9.74545 10.4912 9.69091 10.5454 9.56364C10.4862 9.38287 10.5617 9.18516 10.7259 9.09091H10.6357C10.6357 9.09091 10.437 9.09091 10.3287 9.09091C10.3817 9.07525 10.4381 9.07525 10.4912 9.09091C10.4912 9.09091 10.4912 8.98182 10.6176 8.96364C10.744 8.94545 10.8343 8.63636 10.8343 8.56364C10.8343 8.49091 10.437 8.56364 10.2565 8.56364C10.3754 8.22873 10.6134 7.95015 10.9246 7.78182C10.9383 7.87116 10.9039 7.96113 10.8343 8.01818C11.0545 8.0493 11.2718 8.09793 11.4843 8.16364C11.4508 8.18312 11.4095 8.18312 11.376 8.16364C11.5024 8.16364 11.6649 8.16364 11.7913 8.29091C11.9177 8.41818 11.6288 8.29091 11.5566 8.29091C12.3926 8.46934 13.1885 8.80223 13.904 9.27273C13.3295 9.53626 12.722 9.71976 12.0983 9.81818H11.8816C11.7996 9.79046 11.7108 9.79046 11.6288 9.81818C11.5238 9.88391 11.3908 9.88391 11.2857 9.81818L11.2496 9.92727ZM10.744 11.6364C10.6551 11.7132 10.5582 11.7803 10.4551 11.8364C10.3443 11.8983 10.2297 11.9529 10.112 12C10.007 12.0437 9.91409 12.1123 9.84114 12.2H9.75086L9.13692 12.7273H9.02857V12.6182L9.13692 12.4727C9.17438 12.4258 9.21676 12.3832 9.26332 12.3455C9.51612 12.1091 9.93143 12.1091 10.2745 11.9636C10.6176 11.8182 10.5634 11.9636 10.6898 11.9636C10.7661 11.9386 10.8483 11.9386 10.9246 11.9636L10.2565 12.3636L10.744 11.6364ZM10.7259 12.5818C10.6712 12.6445 10.6034 12.6942 10.5273 12.7273H10.8343C10.8343 12.7273 10.6537 12.7273 10.6898 12.7273L10.8343 12.0909L10.9426 12C10.9426 12 11.1051 12 11.0871 12L10.7259 12.5818ZM9.94949 8.03636C9.94949 8.03636 9.94949 8.03636 9.94949 8.14545C9.94949 8.25455 9.94949 8.14545 9.84114 8.25455C9.7328 8.36364 9.84114 8.25455 9.84114 8.25455C9.87296 8.14613 9.95304 8.05877 10.0578 8.01818L9.94949 8.03636ZM7.87292 9.83636C8.19594 9.42498 8.4744 8.98003 8.70354 8.50909C9.03886 8.3134 9.34319 8.06826 9.6064 7.78182C10.0274 7.30841 10.5288 6.91436 11.0871 6.61818C11.3088 6.53766 11.5515 6.53766 11.7733 6.61818C11.7733 6.70909 11.5566 6.61818 11.4482 6.76364C11.1954 7.03636 10.8162 7.18182 10.6176 7.50909C10.419 7.83636 10.3467 8.10909 10.0037 8.2C9.66057 8.29091 10.0037 8.2 10.0037 8.2C9.23898 8.69549 8.5565 9.30905 7.98126 10.0182L7.87292 9.83636ZM12.008 10.6C12.008 10.6 11.8635 10.6 11.8816 10.6C11.8997 10.6 12.0983 10.4727 12.2066 10.4182C12.315 10.3636 12.333 10.4182 12.3872 10.4182C12.4414 10.4182 12.5136 10.4182 12.5678 10.5273C12.6219 10.6364 12.2066 10.6182 12.008 10.6909V10.6ZM16.0709 12.5091L16.2514 11.7455C16.5364 11.4431 16.8443 11.1635 17.1723 10.9091L17.4613 10.6909C17.4613 10.6909 17.4613 10.6909 17.4613 10.5818C17.4613 10.4727 17.2446 10.7455 17.1182 10.7818C16.9918 10.8182 17.1182 10.7818 17.1182 10.7818L17.389 10.5636C17.0689 10.5443 16.7572 10.6712 16.5403 10.9091C16.5403 10.9091 16.432 10.9091 16.4139 10.9091C16.0167 11.0364 15.7278 11.3818 15.3305 11.5455C15.1771 11.614 15.0205 11.6746 14.861 11.7273C14.6391 11.7543 14.4148 11.7543 14.1929 11.7273C13.8709 11.7703 13.5514 11.831 13.2359 11.9091C13.0365 11.8968 12.8364 11.909 12.64 11.9455C12.64 11.9455 12.64 12.0727 12.4594 12.1091C12.3035 12.2019 12.1582 12.3116 12.0261 12.4364L11.5927 12.8364V12.7273V12.6182L11.701 12.4545C11.8332 12.3298 11.9785 12.2201 12.1344 12.1273H12.008C12.008 12.1273 11.8997 12.2909 11.7913 12.2909C11.8374 12.2224 11.8994 12.1662 11.9719 12.1273L12.2608 11.9636C12.1145 12.0122 11.9749 12.0794 11.8455 12.1636C11.8455 12.1636 11.9538 12.1636 12.008 12.0364C12.8567 11.3818 14.0123 11.5455 14.9874 11.2L15.2222 11.0545C15.3486 11.0545 15.4569 10.8727 15.6194 10.7818C16.0133 10.6002 16.2619 10.1997 16.2514 9.76364C15.9165 10.1166 15.5261 10.4115 15.0958 10.6364C14.5191 10.8551 13.9061 10.96 13.2901 10.9455C13.2901 10.9455 13.2901 10.9455 13.4165 10.9455C13.5429 10.9455 13.4165 10.8364 13.5248 10.8H13.6331C13.6331 10.6909 13.3984 10.8 13.272 10.8C13.1456 10.8 13.272 10.6727 13.272 10.6545H13.5429C13.5318 10.619 13.5318 10.581 13.5429 10.5455C13.9221 10.3091 14.3013 10.1273 14.6624 9.90909C14.6624 9.90909 14.536 9.90909 14.4638 9.90909C14.3915 9.90909 14.4638 9.81818 14.4638 9.81818C14.4638 9.81818 14.9874 9.58182 15.2763 9.49091C15.168 9.49091 15.0958 9.49091 14.9874 9.49091C14.8791 9.49091 14.9874 9.49091 15.1499 9.49091V9.09091C15.1499 9.09091 15.2402 9.09091 15.2944 9.09091C15.3486 9.09091 15.2944 9.09091 15.2944 9.09091C15.3881 9.00314 15.5097 8.95161 15.6375 8.94545H15.5291C15.5291 8.94545 15.5291 8.94545 15.5291 8.85455C15.6367 8.65459 15.7157 8.44036 15.7639 8.21818C15.4537 8.47785 15.0792 8.64755 14.6805 8.70909H14.4457C14.3019 8.77289 14.1381 8.77289 13.9943 8.70909C13.8859 8.70909 13.8318 8.56364 13.7234 8.49091C13.5215 8.35906 13.3028 8.25511 13.0734 8.18182C12.4206 7.96975 11.7366 7.87137 11.051 7.89091C11.3463 7.76787 11.6556 7.68236 11.9719 7.63636C12.397 7.46413 12.8499 7.3717 13.3081 7.36364C13.2181 7.35452 13.1273 7.35452 13.0373 7.36364C12.6922 7.29691 12.3412 7.26644 11.9899 7.27273L11.2135 7.47273C11.069 7.47273 10.9787 7.69091 10.7982 7.65455C11.0328 7.31538 11.3887 7.08082 11.7913 7C12.2587 6.93614 12.7324 6.93614 13.1998 7C13.5351 7.03408 13.8672 7.09487 14.1929 7.18182C14.3193 7.18182 14.3554 7.4 14.4638 7.41818C14.5721 7.43636 14.7707 7.41818 14.9333 7.52727C14.9242 7.47311 14.9242 7.4178 14.9333 7.36364C15.0416 7.25455 15.168 7.36364 15.2763 7.36364C15.3847 7.36364 15.0958 7 14.9874 6.8C15.1847 6.98301 15.4029 7.14171 15.6375 7.27273C15.7819 7.27273 16.0889 7.41818 16.0347 7.27273C15.8683 6.9888 15.6682 6.72627 15.4389 6.49091V6.36364C15.4389 6.36364 15.4389 6.36364 15.3486 6.36364V6.2C15.2583 6.2 15.3486 6.05455 15.2222 5.96364C15.0958 5.87273 15.2222 5.65455 15.2222 5.50909C15.1692 5.36217 15.1328 5.20969 15.1138 5.05455C15.1138 4.61818 14.9333 4.21818 14.8791 3.8C14.8249 3.38182 15.168 2.90909 15.4027 2.47273C15.5522 2.13686 15.7817 1.84333 16.0709 1.61818C16.177 1.30972 16.3427 1.02547 16.5584 0.781818C16.7922 0.549398 17.0766 0.375084 17.389 0.272727C17.7502 0.109091 18.0571 0 18.0571 0H0V13.8545H12.8025C13.3276 13.5223 13.8769 13.2306 14.4457 12.9818C14.9256 12.7822 15.3802 12.5258 15.8 12.2182" fill="#273375"/>
<path d="M38.3354 0H23.3479H23.4743L23.8535 0.2C24.0542 0.286738 24.2241 0.432502 24.3411 0.618182C24.3411 0.618182 24.4855 0.854545 24.3411 0.945454C24.1966 1.03636 24.3411 1.29091 24.1244 1.34545C23.9407 1.3924 23.7483 1.3924 23.5646 1.34545H23.2577C23.6605 1.4789 24.0174 1.7248 24.2869 2.05455C24.2869 2.05455 24.4133 2.05455 24.5217 2.05455C24.63 2.05455 24.5217 2.05455 24.5217 2.05455C24.5217 2.05455 24.4314 2.14545 24.5217 2.21818C24.6661 2.21818 24.63 1.90909 24.8286 1.98182C24.9341 2.094 24.9341 2.26963 24.8286 2.38182L24.5217 2.63636C24.4851 2.69139 24.4851 2.76315 24.5217 2.81818C24.5836 2.91183 24.6265 3.01687 24.6481 3.12727C24.7383 3.32727 24.7564 3.52727 24.8286 3.70909C24.9559 4.09012 25.0229 4.48892 25.0273 4.89091C25.0273 5.09091 24.9189 5.29091 25.0273 5.49091C25.0944 5.68695 25.1919 5.87104 25.3162 6.03636C25.4203 6.17007 25.5168 6.30969 25.6051 6.45454C25.7676 6.72727 26.0565 6.98182 25.9301 7.29091C25.8037 7.6 25.5509 7.45454 25.3703 7.56364C25.1898 7.67273 25.3703 7.90909 25.3703 8.03636C25.3703 8.16364 25.2078 8.41818 25.0273 8.50909C24.8467 8.6 25.1898 8.50909 25.2078 8.50909C25.2259 8.50909 25.3703 8.72727 25.2981 8.85454C25.2259 8.98182 24.8647 9.09091 25.0273 9.32727C25.1077 9.51276 25.1077 9.7236 25.0273 9.90909C24.939 10.1109 24.7557 10.2545 24.5397 10.2909C24.3792 10.327 24.2127 10.327 24.0522 10.2909H23.8897C23.4422 10.2035 22.99 10.1428 22.5354 10.1091C22.41 10.1259 22.2881 10.1628 22.1742 10.2182C22.0538 10.2934 21.9444 10.3852 21.8492 10.4909L21.6686 11.2182C21.5829 11.3667 21.5161 11.5255 21.47 11.6909C21.3004 12.0917 21.3004 12.5447 21.47 12.9455C21.47 12.9455 22.3367 13.2182 22.9146 13.4909C23.1351 13.572 23.3469 13.6756 23.5466 13.8H38.2631L38.3354 0Z" fill="#E30613"/>
<path d="M24.2325 5.05454C24.3408 5.05454 24.5033 5.05454 24.5033 5.05454C24.5033 5.05454 24.1241 5.32727 23.9797 5.52727C23.9797 5.52727 23.9797 5.70908 23.8533 5.70908C23.7772 5.68276 23.6946 5.68276 23.6185 5.70908C23.7188 5.82086 23.8676 5.87533 24.0158 5.85454C24.032 5.88906 24.032 5.92911 24.0158 5.96363H24.1241V6.18181C24.1241 6.2909 23.9074 6.18181 23.7991 6.18181C24.0001 6.23666 24.212 6.23666 24.413 6.18181C24.5756 6.18181 24.413 5.87272 24.5214 5.74545C24.6297 5.61818 24.5214 5.65454 24.5214 5.65454C24.5214 5.65454 24.6297 5.52727 24.6839 5.50908C24.73 5.52932 24.7823 5.52932 24.8284 5.50908C24.8284 5.50908 24.72 5.50908 24.8284 5.38181C24.9367 5.25454 25.1173 5.12727 25.0631 4.96363C25.0089 4.79999 24.8284 4.96363 24.702 4.83636C24.5536 4.80011 24.3989 4.80011 24.2505 4.83636C24.116 4.86423 23.9833 4.90067 23.8533 4.94545C23.6762 5.01193 23.5067 5.09727 23.3477 5.19999C23.5375 5.14088 23.7304 5.09232 23.9255 5.05454C24.0754 5.03553 24.227 5.03553 24.3769 5.05454" fill="#9D9D9C"/>
</g>
<g clip-path="url(#clip1_1195_17457)">
<path d="M180.02 15.7971C180.02 18.5133 178.945 21.1183 177.032 23.039C175.119 24.9596 172.525 26.0386 169.82 26.0386C167.115 26.0386 164.521 24.9596 162.608 23.039C160.695 21.1183 159.62 18.5133 159.62 15.7971C159.5 7.41546 169.7 0 169.7 0C169.7 0 180.02 7.41546 180.02 15.7971Z" fill="#8FC5EC"/>
<path d="M139.125 2.77776C136.601 2.80827 134.178 3.77498 132.322 5.49183C130.465 7.20868 129.307 9.55432 129.069 12.0773H123.32C123.046 12.0773 122.783 12.1867 122.589 12.3815C122.395 12.5763 122.286 12.8405 122.286 13.1159C122.286 13.3914 122.395 13.6556 122.589 13.8504C122.783 14.0451 123.046 14.1546 123.32 14.1546H129.069C129.351 16.6427 130.529 18.9417 132.38 20.6188C134.232 22.296 136.631 23.2356 139.125 23.2609C147.472 23.2609 154.857 13.0193 154.857 13.0193C154.857 13.0193 147.568 2.77776 139.125 2.77776Z" fill="#76B82A"/>
<path d="M206.24 2.77781C199.89 2.77781 194.213 8.69569 191.807 11.5218L185.144 4.83095C184.945 4.6333 184.677 4.52238 184.398 4.52238C184.118 4.52238 183.85 4.6333 183.652 4.83095C183.468 5.03168 183.365 5.29468 183.365 5.56767C183.365 5.84066 183.468 6.10366 183.652 6.30438L190.243 12.9227L183.652 19.6377C183.468 19.8384 183.365 20.1014 183.365 20.3744C183.365 20.6474 183.468 20.9104 183.652 21.1111C183.749 21.212 183.864 21.2922 183.993 21.347C184.121 21.4018 184.259 21.43 184.398 21.43C184.537 21.43 184.675 21.4018 184.803 21.347C184.931 21.2922 185.047 21.212 185.144 21.1111L191.711 14.4928C194.116 17.3189 199.89 23.2367 206.144 23.2367C208.849 23.2367 211.444 22.1577 213.356 20.2371C215.269 18.3164 216.344 15.7114 216.344 12.9952C216.344 10.279 215.269 7.674 213.356 5.75334C211.444 3.83268 208.849 2.75366 206.144 2.75366" fill="#009FE3"/>
<path d="M223.272 4.00966H224.787V22.9952H236.695V24.3961H223.272V4.00966Z" fill="#1D1D1B"/>
<path d="M244.128 4.00966H258.561V5.41063H245.643V13.4058H257.262V14.8068H245.643V22.9952H258.706V24.3961H244.128V4.00966Z" fill="#1D1D1B"/>
<path d="M265.153 21.4252L266.139 20.2899C267.073 21.2616 268.195 22.0309 269.436 22.5502C270.677 23.0695 272.011 23.3278 273.356 23.3092C276.459 23.3092 278.648 21.5942 278.648 19.3237C278.648 17.174 277.517 15.9179 272.899 15C268.28 14.0822 266.067 12.343 266.067 9.25125C266.129 8.46358 266.35 7.69669 266.714 6.99654C267.079 6.29639 267.581 5.67739 268.19 5.17667C268.798 4.67594 269.502 4.30378 270.257 4.0825C271.012 3.86123 271.805 3.79539 272.586 3.88893C275.129 3.7963 277.616 4.65732 279.562 6.30439L278.6 7.51212C276.966 5.95104 274.793 5.08545 272.538 5.09666C269.555 5.09666 267.582 6.83579 267.582 8.96139C267.582 11.1112 268.665 12.4397 273.5 13.43C278.335 14.4203 280.164 16.0628 280.164 19.0339C280.164 22.3189 277.349 24.5894 273.428 24.5894C270.381 24.6239 267.443 23.4525 265.249 21.3285" fill="#1D1D1B"/>
<path d="M136.72 43.4783H130.537L133.568 36.401L136.72 43.4783ZM131.908 31.0387L122.575 52.1739H126.881L128.974 47.343H138.187L140.232 52.1739H144.682L135.469 31.0387H131.908Z" fill="#1D1D1B"/>
<path d="M158.105 43.913H163.301V47.2705C161.938 48.196 160.327 48.6845 158.682 48.6715C157.781 48.6872 156.887 48.5144 156.056 48.1643C155.225 47.8142 154.476 47.2944 153.856 46.6378C153.236 45.9813 152.759 45.2025 152.455 44.3508C152.151 43.4991 152.027 42.5933 152.091 41.6908C152.046 40.8195 152.172 39.9478 152.464 39.1258C152.755 38.3038 153.206 37.5478 153.789 36.9013C154.373 36.2547 155.078 35.7304 155.864 35.3586C156.65 34.9867 157.501 34.7745 158.369 34.7343C159.379 34.7039 160.384 34.8762 161.325 35.2412C162.267 35.6063 163.127 36.1566 163.854 36.8599L164.095 37.0531L166.741 33.8164L166.524 33.6232C164.319 31.6764 161.447 30.6635 158.514 30.7971C157.093 30.7842 155.684 31.056 154.369 31.5968C153.054 32.1375 151.86 32.9363 150.856 33.9463C149.852 34.9563 149.06 36.1572 148.524 37.4788C147.988 38.8003 147.721 40.2158 147.737 41.6425C147.678 43.0844 147.919 44.5227 148.445 45.8658C148.971 47.2088 149.77 48.4271 150.791 49.4429C151.811 50.4588 153.032 51.2499 154.374 51.7659C155.716 52.2818 157.151 52.5113 158.586 52.4396C161.77 52.4385 164.846 51.2802 167.246 49.1787V40.1932H158.105V43.913Z" fill="#1D1D1B"/>
<path d="M177.783 43.5024H187.958V39.686H177.783V35H189.257V31.1836H173.597V52.1739H189.402V48.3817H177.783V43.5024Z" fill="#1D1D1B"/>
<path d="M210.114 44.7102L199.697 31.1836H195.945V52.1739H200.058V38.2609L210.811 52.1739H214.251V31.1836H210.114V44.7102Z" fill="#1D1D1B"/>
<path d="M235.347 46.0628C234.637 46.858 233.77 47.4963 232.801 47.9371C231.832 48.3779 230.782 48.6115 229.718 48.6232C228.839 48.6084 227.972 48.4152 227.169 48.0551C226.366 47.695 225.644 47.1755 225.046 46.5279C224.448 45.8802 223.987 45.1178 223.69 44.2865C223.394 43.4553 223.268 42.5723 223.32 41.6908C223.271 40.8124 223.4 39.9333 223.698 39.1062C223.997 38.2791 224.459 37.5211 225.056 36.878C225.654 36.2349 226.375 35.7198 227.177 35.3639C227.978 35.0079 228.842 34.8184 229.718 34.8067C230.747 34.821 231.762 35.0421 232.704 35.4569C233.646 35.8718 234.496 36.472 235.203 37.2222L235.42 37.4396L238.114 34.3237L237.897 34.1304C236.839 33.0464 235.567 32.1964 234.163 31.6349C232.759 31.0733 231.253 30.8127 229.742 30.8695C228.317 30.8398 226.9 31.1002 225.578 31.635C224.255 32.1699 223.054 32.968 222.047 33.9814C221.04 34.9948 220.248 36.2025 219.719 37.5316C219.189 38.8607 218.933 40.2838 218.965 41.715C218.94 43.1298 219.196 44.5355 219.72 45.8492C220.244 47.1629 221.024 48.358 222.015 49.3642C223.006 50.3704 224.187 51.1673 225.49 51.7079C226.792 52.2486 228.189 52.522 229.598 52.5121C231.193 52.556 232.778 52.2478 234.241 51.6092C235.704 50.9706 237.01 50.0172 238.066 48.8164L238.258 48.599L235.66 45.8937L235.347 46.0628Z" fill="#1D1D1B"/>
<path d="M247.593 43.5024H257.768V39.686H247.593V35H259.067V31.1836H243.407V52.1739H259.211V48.3817H247.593V43.5024Z" fill="#1D1D1B"/>
<path d="M273.957 39.7585C270.06 38.8164 269.387 38.1884 269.387 36.8599C269.387 35.6039 270.59 34.7585 272.37 34.7585C274.325 34.8222 276.203 35.5358 277.71 36.7875L277.951 36.9807L280.212 33.8164L279.995 33.6474C277.866 31.9019 275.19 30.9693 272.442 31.0145C268.184 31.0145 265.225 33.5749 265.225 37.2464C265.225 41.1594 267.799 42.5604 272.225 43.6232C275.93 44.4928 276.579 45.2174 276.579 46.4493C276.579 47.8261 275.28 48.7198 273.284 48.7198C270.952 48.7017 268.718 47.775 267.053 46.1353L266.813 45.8937L264.215 48.9372L264.455 49.1305C266.82 51.2979 269.914 52.4885 273.115 52.4638C277.71 52.4638 280.669 50.0483 280.669 46.087C280.669 42.8261 278.72 41.0145 273.909 39.8309" fill="#1D1D1B"/>
<path d="M139.919 77.971C141.107 78.0546 142.3 77.8897 143.422 77.4866C144.544 77.0836 145.571 76.4511 146.436 75.6293C147.302 74.8074 147.989 73.8141 148.453 72.7121C148.917 71.6101 149.148 70.4234 149.132 69.227C149.154 68.0247 148.928 66.8307 148.468 65.7206C148.007 64.6105 147.322 63.6084 146.457 62.7775C145.591 61.9467 144.563 61.3052 143.437 60.8937C142.312 60.4821 141.114 60.3094 139.919 60.3864H134.675V77.971H139.919ZM133.159 58.9855H139.919C141.299 58.8929 142.684 59.0859 143.987 59.5526C145.29 60.0192 146.483 60.7496 147.494 61.6985C148.504 62.6473 149.31 63.7944 149.86 65.0687C150.411 66.3429 150.695 67.7172 150.696 69.1062C150.695 70.4983 150.411 71.8756 149.861 73.1534C149.311 74.4313 148.506 75.5828 147.497 76.5373C146.488 77.4918 145.295 78.2292 143.992 78.7042C142.689 79.1792 141.303 79.3818 139.919 79.2995H133.159V58.9855Z" fill="#1D1D1B"/>
<path d="M157.311 58.9856H171.744V60.3865H158.802V68.3817H170.445V69.7827H158.802V77.9711H171.889V79.372H157.311V58.9856Z" fill="#1D1D1B"/>
<path d="M192.384 58.6715H188.223V79.6618H203.065V75.7971H192.384V58.6715Z" fill="#1D1D1B"/>
<path d="M206.216 63.2609H207.708C207.708 64.4445 206.986 65.1208 205.471 65.4106H205.158L205.663 67.4879H205.928C206.598 67.5413 207.272 67.4429 207.9 67.2C208.528 66.9572 209.093 66.576 209.555 66.0847C210.016 65.5934 210.362 65.0044 210.567 64.361C210.772 63.7176 210.831 63.0363 210.739 62.3672V58.6715H206.216V63.2609Z" fill="#1D1D1B"/>
<path d="M221.925 70.9904H232.1V67.1739H221.925V62.4879H233.423V58.6715H217.763V79.6618H233.568V75.8696H221.925V70.9904Z" fill="#1D1D1B"/>
<path d="M251.657 70.9662H245.571L248.602 63.8889L251.657 70.9662ZM246.846 58.5266L237.609 79.7102H241.915L244.008 74.8793H253.221L255.266 79.7102H259.716L250.503 58.5266H246.846Z" fill="#1D1D1B"/>
<path d="M275.858 58.6715V70.7488C275.858 74.2029 274.15 76.1111 271.047 76.1111C267.944 76.1111 266.236 74.1546 266.236 70.6039V58.6715H262.05V70.7488C262.05 76.6425 265.298 80.0242 270.999 80.0242C276.7 80.0242 280.02 76.5701 280.02 70.5556V58.6715H275.858Z" fill="#221E1F"/>
</g>
<defs>
<clipPath id="clip0_1195_17457">
<rect width="90.2857" height="80" fill="white"/>
</clipPath>
<clipPath id="clip1_1195_17457">
<rect width="158.431" height="80" fill="white" transform="translate(122.286)"/>
</clipPath>
</defs>
</svg>
